# xmcd
#
# Track frame offsets: 
#        150
#        14066
#        31140
#        48945
#        66938
#        83357
#        98778
#        112756
#        133382
#        159873
#        182362
#        202940
#        222917
#        244786
#        259013
#        274788
#        298088
#
# Disc length: 4181 seconds
#
# Revision: 4
# Processed by: cddbd v1.5.2PL0 Copyright (c) Steve Scherf et al.
# Submitted via: ExactAudioCopy v1.3
#
DISCID=e5105311
DTITLE=B'z - Action
DYEAR=2007
DGENRE=Rock
TTITLE0=純情Action
TTITLE1=黒い青春
TTITLE2=Super Love Song
TTITLE3=満月よ照らせ
TTITLE4=パーフェクトライフ
TTITLE5=一心不乱
TTITLE6=Friction -Lap 2-
TTITLE7=One On One
TTITLE8=僕には君がいる
TTITLE9=なんという幸せ
TTITLE10=わるいゆめ
TTITLE11=Hometown Boys' March
TTITLE12=光芒
TTITLE13=トラベリンメンのテーマ
TTITLE14=オレとオマエの新しい季節
TTITLE15=永遠の翼
TTITLE16=Buddy
EXTD=
EXTT0=
EXTT1=
EXTT2=
EXTT3=
EXTT4=
EXTT5=
EXTT6=
EXTT7=
EXTT8=
EXTT9=
EXTT10=
EXTT11=
EXTT12=
EXTT13=
EXTT14=
EXTT15=
EXTT16=
PLAYORDER=
